<?xml version="1.0" standalone="no"?><!DOCTYPE svg PUBLIC "-//W3C//DTD SVG 1.1//EN" "http://www.w3.org/Graphics/SVG/1.1/DTD/svg11.dtd"><svg t="1488882996616" class="icon" style="" viewBox="0 0 1024 1024" version="1.1" xmlns="http://www.w3.org/2000/svg" p-id="24766" xmlns:xlink="http://www.w3.org/1999/xlink" width="48" height="48"><defs><style type="text/css"></style></defs><path d="M527.437 168.951c-4.094-4.094-9.647-6.395-15.438-6.395s-11.343 2.3-15.437 6.395l-159.085 159.085c-8.526 8.526-8.526 22.348 0 30.873s22.348 8.527 30.873 0l143.649-143.648 143.647 143.648c4.263 4.263 9.849 6.395 15.438 6.395 5.586 0 11.174-2.132 15.438-6.395 8.525-8.526 8.526-22.348 0-30.873l-159.086-159.085z" p-id="24767" fill="#000000" opacity="0.5"></path><path d="M105.131 573.788h93.385v238.405h43.661v-238.405h93.385v-43.661h-230.43z" p-id="24768" fill="#000000" opacity="0.5"></path><path d="M576.372 530.127h-115.663c-13.967 0-27.934 5.329-38.591 15.985-10.657 10.658-15.985 24.625-15.985 38.591v172.914c0 13.967 5.328 27.934 15.985 38.591s24.625 15.985 38.591 15.985h115.663c13.966 0 27.934-5.329 38.591-15.985 10.656-10.658 15.985-24.625 15.985-38.591v-172.914c0-13.967-5.33-27.934-15.985-38.591-10.657-10.658-24.625-15.985-38.591-15.985zM587.287 757.617c0 2.063-0.557 5.075-3.196 7.716-2.643 2.643-5.659 3.199-7.719 3.199h-115.663c-2.063 0-5.075-0.555-7.717-3.196-2.642-2.643-3.198-5.658-3.198-7.719v-172.914c0-2.063 0.555-5.075 3.196-7.717 2.642-2.643 5.657-3.198 7.719-3.198h115.663c2.062 0 5.075 0.556 7.715 3.196 2.643 2.643 3.2 5.658 3.2 7.719v172.914z" p-id="24769" fill="#000000" opacity="0.5"></path><path d="M902.884 546.111c-10.658-10.657-24.626-15.985-38.591-15.985h-149.691v282.067h43.661v-123.714h106.030c13.966 0 27.934-5.329 38.591-15.985 10.656-10.658 15.985-24.625 15.985-38.591v-49.2c0-13.967-5.33-27.934-15.985-38.592zM875.209 633.903c0 2.063-0.557 5.075-3.196 7.716-2.643 2.643-5.659 3.199-7.719 3.199h-106.030v-71.030h106.030c2.062 0 5.075 0.556 7.717 3.196 2.641 2.643 3.198 5.658 3.198 7.719v49.2z" p-id="24770" fill="#000000" opacity="0.5"></path></svg>
